<?xml version="1.0" standalone="no"?><!DOCTYPE svg PUBLIC "-//W3C//DTD SVG 1.1//EN" "http://www.w3.org/Graphics/SVG/1.1/DTD/svg11.dtd"><svg class="icon" width="200px" height="200.00px" viewBox="0 0 1024 1024" version="1.1" xmlns="http://www.w3.org/2000/svg"><path d="M512 640a128 128 0 1 1 0-256 128 128 0 0 1 0 256z m0-51.2a76.8 76.8 0 1 0 0-153.6 76.8 76.8 0 0 0 0 153.6z" fill="#636363" /><path d="M515.104 293.888c-167.36 0-322.016 84.608-406.72 210.56 84.544 135.296 239.2 225.664 406.72 225.664 168.544 0 327.872-91.52 412.224-225.696-84.512-124.864-243.872-210.528-412.224-210.528z m0-69.888c197.696 0 384.64 105.664 477.536 260.576l11.104 18.496-10.56 18.88C900.608 687.296 713.568 800 515.104 800 317.6 800 135.744 688.448 42.56 521.952l-10.56-18.88 11.104-18.496C136.64 328.576 318.368 224 515.104 224z" fill="#636363" /></svg>