<?xml version="1.0" standalone="no"?><!DOCTYPE svg PUBLIC "-//W3C//DTD SVG 1.1//EN" "http://www.w3.org/Graphics/SVG/1.1/DTD/svg11.dtd"><svg class="icon" width="200px" height="200.00px" viewBox="0 0 1024 1024" version="1.1" xmlns="http://www.w3.org/2000/svg"><path d="M799.811 270.228l-17.07 12.872c-2.635 1.987-6.416 1.457-8.403-1.178s-1.457-6.416 1.178-8.403l17.071-12.872c2.635-1.987 6.416-1.457 8.403 1.178 1.986 2.635 1.456 6.416-1.179 8.403z" fill="#ffffff" /><path d="M508.763 245.961m-6.5 0a6.5 6.5 0 1 0 13 0 6.5 6.5 0 1 0-13 0Z" fill="#ffffff" /><path d="M510.366 926.942c-55.902 0-110.141-10.952-161.208-32.552-49.318-20.859-93.606-50.719-131.636-88.748-38.03-38.03-67.889-82.318-88.749-131.637-21.6-51.067-32.552-105.306-32.552-161.208s10.952-110.141 32.552-161.208c20.859-49.318 50.719-93.606 88.749-131.636 38.029-38.03 82.318-67.889 131.636-88.749 51.067-21.6 105.306-32.552 161.208-32.552 55.903 0 110.141 10.952 161.208 32.552 49.317 20.859 93.606 50.719 131.636 88.749 38.029 38.029 67.889 82.318 88.748 131.636 21.6 51.068 32.552 105.306 32.552 161.208s-10.952 110.141-32.552 161.208c-20.859 49.318-50.719 93.606-88.748 131.637-38.029 38.029-82.318 67.889-131.636 88.748-51.067 21.6-105.305 32.552-161.208 32.552z m0-798.289c-211.818 0-384.145 172.327-384.145 384.145 0 211.818 172.327 384.145 384.145 384.145S894.51 724.616 894.51 512.798c0-211.818-172.326-384.145-384.144-384.145z"  /><path d="M693.332 478.435m-43.668 0a43.668 43.668 0 1 0 87.336 0 43.668 43.668 0 1 0-87.336 0Z"  /><path d="M329.332 481.247m-43.668 0a43.668 43.668 0 1 0 87.336 0 43.668 43.668 0 1 0-87.336 0Z"  /><path d="M515.871 687.09c-22.304 0-45.171-7.91-62.739-21.702C433.701 650.134 423 629.646 423 607.696h20c0 35.002 38.404 59.394 72.871 59.394 33.548 0 72.545-27.542 72.545-63.05h20c0 22.005-10.539 43.058-29.677 59.282-17.817 15.105-40.732 23.768-62.868 23.768z"  /><path d="M636.516 623.965a67.621 27.94 0 1 0 135.242 0 67.621 27.94 0 1 0-135.242 0Z" fill="#02fff0" /><path d="M260.711 625.965a67.621 27.94 0 1 0 135.242 0 67.621 27.94 0 1 0-135.242 0Z" fill="#02fff0" /></svg>